<?xml version="1.0" encoding="UTF-8"?>
<svg xmlns="http://www.w3.org/2000/svg" xmlns:xlink="http://www.w3.org/1999/xlink" width="360pt" height="366pt" viewBox="0 0 360 366" version="1.1">
<g id="surface4">
<path style=" stroke:none;fill-rule:evenodd;fill:rgb(72.000122%,89.99939%,0%);fill-opacity:0.3;" d="M 302.5 114 C 302.5 85.488281 291.171875 58.148438 271.011719 37.988281 C 250.851562 17.828125 223.511719 6.5 195 6.5 C 166.488281 6.5 139.148438 17.828125 118.988281 37.988281 C 98.828125 58.148438 87.5 85.488281 87.5 114 C 87.5 142.511719 98.828125 169.851562 118.988281 190.011719 C 139.148438 210.171875 166.488281 221.5 195 221.5 C 223.511719 221.5 250.851562 210.171875 271.011719 190.011719 C 291.171875 169.851562 302.5 142.511719 302.5 114 Z M 302.5 114 "/>
<path style=" stroke:none;fill-rule:evenodd;fill:rgb(0%,89.99939%,36.000061%);fill-opacity:0.3;" d="M 222.5 140 C 222.5 111.488281 211.171875 84.148438 191.011719 63.988281 C 170.851562 43.828125 143.511719 32.5 115 32.5 C 86.488281 32.5 59.148438 43.828125 38.988281 63.988281 C 18.828125 84.148438 7.5 111.488281 7.5 140 C 7.5 168.511719 18.828125 195.851562 38.988281 216.011719 C 59.148438 236.171875 86.488281 247.5 115 247.5 C 143.511719 247.5 170.851562 236.171875 191.011719 216.011719 C 211.171875 195.851562 222.5 168.511719 222.5 140 Z M 222.5 140 "/>
<path style=" stroke:none;fill-rule:evenodd;fill:rgb(0%,36.000061%,89.99939%);fill-opacity:0.3;" d="M 222.5 225 C 222.5 196.488281 211.171875 169.148438 191.011719 148.988281 C 170.851562 128.828125 143.511719 117.5 115 117.5 C 86.488281 117.5 59.148438 128.828125 38.988281 148.988281 C 18.828125 169.148438 7.5 196.488281 7.5 225 C 7.5 253.511719 18.828125 280.851562 38.988281 301.011719 C 59.148438 321.171875 86.488281 332.5 115 332.5 C 143.511719 332.5 170.851562 321.171875 191.011719 301.011719 C 211.171875 280.851562 222.5 253.511719 222.5 225 Z M 222.5 225 "/>
<path style=" stroke:none;fill-rule:evenodd;fill:rgb(72.000122%,0%,89.99939%);fill-opacity:0.3;" d="M 302.5 251 C 302.5 222.488281 291.171875 195.148438 271.011719 174.988281 C 250.851562 154.828125 223.511719 143.5 195 143.5 C 166.488281 143.5 139.148438 154.828125 118.988281 174.988281 C 98.828125 195.148438 87.5 222.488281 87.5 251 C 87.5 279.511719 98.828125 306.851562 118.988281 327.011719 C 139.148438 347.171875 166.488281 358.5 195 358.5 C 223.511719 358.5 250.851562 347.171875 271.011719 327.011719 C 291.171875 306.851562 302.5 279.511719 302.5 251 Z M 302.5 251 "/>
<path style=" stroke:none;fill-rule:evenodd;fill:rgb(89.99939%,0%,0%);fill-opacity:0.3;" d="M 351.5 183 C 351.5 154.488281 340.171875 127.148438 320.011719 106.988281 C 299.851562 86.828125 272.511719 75.5 244 75.5 C 215.488281 75.5 188.148438 86.828125 167.988281 106.988281 C 147.828125 127.148438 136.5 154.488281 136.5 183 C 136.5 211.511719 147.828125 238.851562 167.988281 259.011719 C 188.148438 279.171875 215.488281 290.5 244 290.5 C 272.511719 290.5 299.851562 279.171875 320.011719 259.011719 C 340.171875 238.851562 351.5 211.511719 351.5 183 Z M 351.5 183 "/>
</g>
</svg>
